<?xml version="1.0" encoding="UTF-8"?>
<svg id="Layer_1" data-name="Layer 1" xmlns="http://www.w3.org/2000/svg" viewBox="0 0 309.35 629.68">
  <defs>
    <style>
      .cls-1 {
        fill: #959394;
      }

      .cls-2 {
        fill: none;
      }
    </style>
  </defs>
  <path class="cls-2" d="m262.01,207.84H46.87c-22.37,0-40.51,18.14-40.51,40.51v334.02c0,22.37,18.14,40.51,40.51,40.51h215.14c22.37,0,40.51-18.14,40.51-40.51V248.35c0-22.37-18.14-40.51-40.51-40.51Zm-191.71,110.4c-8.52,0-15.43-6.91-15.43-15.43s6.91-15.43,15.43-15.43,15.43,6.91,15.43,15.43-6.91,15.43-15.43,15.43Zm57.34,0c-8.52,0-15.43-6.91-15.43-15.43s6.91-15.43,15.43-15.43,15.43,6.91,15.43,15.43-6.91,15.43-15.43,15.43Zm56.04,0c-8.52,0-15.43-6.91-15.43-15.43s6.91-15.43,15.43-15.43,15.43,6.91,15.43,15.43-6.91,15.43-15.43,15.43Zm55.96,0c-8.52,0-15.43-6.91-15.43-15.43s6.91-15.43,15.43-15.43,15.43,6.91,15.43,15.43-6.91,15.43-15.43,15.43Z"/>
  <circle fill="currentColor" cx="70.3" cy="302.81" r="15.43"/>
  <circle fill="currentColor" cx="127.65" cy="302.81" r="15.43"/>
  <circle fill="currentColor" cx="183.69" cy="302.81" r="15.43"/>
  <circle fill="currentColor" cx="239.65" cy="302.81" r="15.43"/>
  <path fill="currentColor" d="m297.68,199.13h-39.06V8.16c0-4.51-3.65-8.16-8.16-8.16h-1.04c-4.51,0-8.16,3.65-8.16,8.16v190.97h-48.18V65.97c0-4.51-3.65-8.16-8.16-8.16h-1.04c-4.51,0-8.16,3.65-8.16,8.16v133.16h-44.57V65.97c0-4.51-3.65-8.16-8.16-8.16h-1.04c-4.51,0-8.16,3.65-8.16,8.16v133.16h-46.63V8.16c0-4.51-3.65-8.16-8.16-8.16h-1.04c-4.51,0-8.16,3.65-8.16,8.16v190.97H11.67c-6.44,0-11.67,5.22-11.67,11.67v407.21c0,6.44,5.22,11.67,11.67,11.67h286.02c6.44,0,11.67-5.22,11.67-11.67V210.8c0-6.44-5.22-11.67-11.67-11.67Zm4.84,383.23c0,22.37-18.14,40.51-40.51,40.51H46.87c-22.37,0-40.51-18.14-40.51-40.51V248.35c0-22.37,18.14-40.51,40.51-40.51h215.14c22.37,0,40.51,18.14,40.51,40.51v334.02Z"/>
</svg>