<?xml version="1.0" encoding="UTF-8"?>
<svg id="Layer_1" data-name="Layer 1" xmlns="http://www.w3.org/2000/svg" viewBox="0 0 310.08 489.93">
  <defs>
    <style>
      .cls-1 {
        fill: currentColor;
      }

      .cls-2 {
        fill: none;
      }
    </style>
  </defs>
  <path class="cls-2" d="m258.65,379.42c-.39-16.65,0-175.74,0-262.06-12.77-76.26-103.35-78.97-103.35-78.97,0,0-90.58,2.71-103.35,78.97,0,86.32.39,245.42,0,262.06-.39,16.65-.39,32.9-7.35,51.1-6.97,18.19-22.06,31.74-18.58,39.48s7.74,10.87,55.74,10.84c66.97-.04,73.55.03,73.55.03,0,0,6.58-.07,73.55-.03,48,.03,52.26-3.1,55.74-10.84s-11.61-21.29-18.58-39.48c-6.97-18.19-6.97-34.45-7.35-51.1ZM98.78,130.58c0-2.1,1.7-3.81,3.81-3.81h105.29c2.1,0,3.81,1.7,3.81,3.81v31.11c0,2.1-1.7,3.81-3.81,3.81h-105.29c-2.1,0-3.81-1.7-3.81-3.81v-31.11Zm123.1,249.13c0,8.18-6.63,14.81-14.81,14.81h-100.45c-8.18,0-14.81-6.63-14.81-14.81v-155.61c0-8.18,6.63-14.81,14.81-14.81h100.45c8.18,0,14.81,6.63,14.81,14.81v155.61Z"/>
  <circle class="cls-2" cx="156.78" cy="146.14" r="13.1" transform="translate(-29.38 39.93) rotate(-13.28)"/>
  <path class="cls-1" d="m309.5,106.89v-46.06c0-23.23-15.55-24.07-15.52-26.33.07-6.05.12-9.09.14-10.51,0-.03,0-.16-.01-.45-.16-13.05-10.78-23.55-23.83-23.55H40.35c-13.28,0-24.03,10.78-24.03,24.06,0,3.44-.11,5.65,0,16.65,0,0-14.85,1.94-15.71,20.51-1.37,29.53-.01,55.21,0,55.35v273.29c-.01,7.1,12.46,14.2,12.23,21.29-.74,22.78-1.6,39.13.47,59.06,1.16,11.14,10.56,19.61,21.76,19.72l238.73-1.59c11.85-.08,21.8-9.04,23.03-20.83,1.97-18.9,1.7-33.15.53-56.35-.36-7.1,12.34-11.92,12.08-19.03.02-91.08,1.4-194.17.07-285.24Zm-24.91,363.11c-3.48,7.74-7.74,10.87-55.74,10.84-66.97-.04-73.55.03-73.55.03,0,0-6.58-.07-73.55-.03-48,.03-52.26-3.1-55.74-10.84s11.61-21.29,18.58-39.48c6.97-18.19,6.97-34.45,7.35-51.1.39-16.65,0-175.74,0-262.06,12.77-76.26,103.35-78.97,103.35-78.97,0,0,90.58,2.71,103.35,78.97,0,86.32-.39,245.42,0,262.06.39,16.65.39,32.9,7.35,51.1,6.97,18.19,22.06,31.74,18.58,39.48Z"/>
  <path class="cls-1" d="m102.58,165.5h105.29c2.1,0,3.81-1.7,3.81-3.81v-31.11c0-2.1-1.7-3.81-3.81-3.81h-105.29c-2.1,0-3.81,1.7-3.81,3.81v31.11c0,2.1,1.7,3.81,3.81,3.81Zm54.19-32.46c7.23,0,13.1,5.86,13.1,13.1s-5.86,13.1-13.1,13.1-13.1-5.86-13.1-13.1,5.86-13.1,13.1-13.1Z"/>
  <rect class="cls-1" x="91.81" y="209.29" width="130.06" height="185.23" rx="14.81" ry="14.81"/>
</svg>