<?xml version="1.0" encoding="UTF-8"?>
<svg id="Layer_2" data-name="Layer 2" xmlns="http://www.w3.org/2000/svg" viewBox="0 0 594 647.87">
  <defs>
    <style>
      .cls-1 {
        fill: currentColor;
      }
    </style>
  </defs>
  <rect class="cls-1" x="235.72" y="109.29" width="233.96" height="29.4"/>
  <polygon class="cls-1" points="440.87 536.16 440.87 331.54 426.76 331.54 426.76 536.16 399.72 536.16 399.72 193.37 372.68 193.37 372.68 536.16 344.47 536.16 344.47 552.03 469.67 552.03 469.67 536.16 440.87 536.16"/>
  <rect class="cls-1" x="166.36" y="510.87" width="151.66" height="25.28"/>
  <rect class="cls-1" x="166.36" y="455.02" width="151.66" height="28.22"/>
  <rect class="cls-1" x="166.36" y="384.46" width="151.66" height="31.75"/>
  <path class="cls-1" d="M290.39,275.98c0,36.53-29.61,66.15-66.13,66.15s-66.13-29.62-66.13-66.15,29.61-66.15,66.13-66.15c0,31.75,0,25.28,0,66.15h66.13Z"/>
  <path class="cls-1" d="M247.14,184.36c36.52,0,66.13,29.62,66.13,66.15-37.62-.18-26.38.04-66.13,0v-66.15Z"/>
  <path class="cls-1" d="M593.71,0H192.81L0,193.37v454.5h594l-.29-647.87ZM523.86,577.9H68.78V193.36h124.91s.14-124.64.14-124.64l329.75.19.28,509Z"/>
</svg>