<?xml version="1.0" encoding="UTF-8"?>
<svg id="Layer_1" data-name="Layer 1" xmlns="http://www.w3.org/2000/svg" viewBox="0 0 312.77 388.88">
  <defs>
    <style>
      .cls-1 {
        fill: currentColor;
      }
    </style>
  </defs>
  <path class="cls-1" d="M310.02,332.11L146.39,122.16c-2.03-2.61-3-5.89-2.7-9.19l4.85-53.72c.31-3.46-.77-6.91-3.01-9.57L100.07,3.02C97.29.64,91.69-.04,91.06,0c-9.72.58-8.6.42-22.06,4.48l46.02,53.08c1.97,2.35,3.05,5.31,3.05,8.38v17.19c0,3.08-1.09,6.07-3.08,8.42l-18.56,21.93c-2.48,2.93-6.12,4.62-9.95,4.62h-26.67c-4.24,0-8.22-2.06-10.66-5.53l-24.46-34.72c-3.26-4.63-5.33-7.55-18.97-27.29C.13,51.58.23,71.88,0,78.71l.1,19.16c.68,3.94,1.41,6.1,3.44,8.55l37.62,45.48c2.38,2.87,5.87,4.59,9.6,4.72l21.93.75c3.97.14,7.65,2.07,10.02,5.26l162.97,219.4c2.06,2.78,5.14,4.62,8.57,5.12l10.89,1.6c3.48.51,7.02-.4,9.81-2.54l32.7-24.97c3.23-2.47,5.12-6.3,5.12-10.36v-10.75c0-2.9-.97-5.72-2.75-8.01ZM268.65,360.42c-10.9,0-19.74-8.84-19.74-19.74s8.84-19.74,19.74-19.74,19.74,8.84,19.74,19.74-8.84,19.74-19.74,19.74Z"/>
  <path class="cls-1" d="M81.57,194.32h-20.14c-.92,0-1.8.36-2.45,1l-20,19.68c-.67.66-1.04,1.55-1.04,2.49v39.95c0,.99.42,1.93,1.16,2.6l8.51,7.66c1.15,1.04,2.85,1.19,4.17.38l18.48-11.4c1.06-.65,1.69-1.81,1.66-3.05-.08-3.09-.88-2.08,2.02-7.79,3.19-.1,6.48-.19,12.08,0,2.04-.18,3.79,1.43,3.79,3.48h0c0,1.93,1.56,3.49,3.49,3.49h14.99c1.26,0,2.42-.68,3.04-1.77l8.4-14.87c.42-.75.56-1.63.37-2.47l-4.4-19.97c-.22-.99-.86-1.84-1.75-2.32l-30.72-16.66c-.51-.28-1.08-.42-1.66-.42Z"/>
  <path class="cls-1" d="M85.55,282.81v17.82c0,1.63.51,3.21,1.47,4.52l30.9,42.57c1.54,2.12,4.06,3.32,6.68,3.17l32.58-1.88c2.19-.13,4.23-1.18,5.59-2.9l17.36-21.88c2.38-3,2.2-7.29-.43-10.07l-43.42-46.05c-1.92-2.03-4.78-2.87-7.49-2.19l-37.41,9.43c-3.42.86-5.82,3.94-5.82,7.47Z"/>
  <path class="cls-1" d="M188.52,143.12v14.66c0,2.31,1.74,4.25,4.04,4.48l12.51,1.3c1.29.13,2.57-.29,3.52-1.17l16.45-15.16c1.12-1.03,1.65-2.57,1.39-4.07l-2.38-13.99c-.39-2.32-2.51-3.95-4.85-3.74l-15.44,1.4c-1.09.1-2.11.59-2.87,1.39l-11.14,11.78c-.79.84-1.23,1.95-1.23,3.1Z"/>
  <path class="cls-1" d="M210.35,172.97c-.22,3.53-.07,10.89.06,15.97.08,3,2.54,5.38,5.54,5.38h13.02c1.6,0,3.12-.69,4.18-1.9l12.47-14.31c.88-1.01,1.36-2.3,1.36-3.64v-19.48c0-3.06-2.48-5.54-5.54-5.54h-11.82c-1.74,0-3.38.82-4.43,2.22l-13.73,18.31c-.65.87-1.03,1.91-1.1,2.99Z"/>
  <path class="cls-1" d="M234.01,201.25l-1.55,15.72c-.32,3.23,2.22,6.02,5.46,6.02h13.93c1.34,0,2.64-.49,3.64-1.38l13.63-12.08c1.17-1.04,1.85-2.54,1.85-4.11v-14.11c0-3.03-2.46-5.49-5.49-5.49h-16.14c-1.51,0-2.96.62-3.99,1.72l-9.86,10.46c-.83.88-1.35,2.02-1.47,3.23Z"/>
  <path class="cls-1" d="M255.1,233.47v15.03c0,2.38,1.93,4.3,4.3,4.3h16.75c1.14,0,2.24-.45,3.04-1.26l12.19-12.19c.81-.81,1.26-1.9,1.26-3.04v-15.98c0-2.38-1.93-4.3-4.3-4.3h-17.71c-1.26,0-2.45.55-3.27,1.51l-11.23,13.14c-.67.78-1.03,1.77-1.03,2.8Z"/>
</svg>